<svg id="圖層_1" data-name="圖層 1" xmlns="http://www.w3.org/2000/svg" viewBox="0 0 1700.79 357.17"><defs><style>.cls-1,.cls-2{fill:#090;}.cls-1{fill-rule:evenodd;}</style></defs><path class="cls-1" d="M13,340.13H296.61c1.36-1.5,2.29-2.57,3.48-4.06H190.79v-2.86H303c.85-1,2.12-2.78,3-4l-115.16-.07h0V326H308.16c.85-1.43,1.87-2.78,2.63-4.21l-102.67.07H190.79v-3.42H311.56c.85-1.57,1.61-3.06,2.38-4.63l-54.87.14h0l-50.95.07h0l-17.33.07v-70l17.33.06h0l100.12.29c-1-1.42-2.12-2.85-3.14-4.13H190.79V237.5H302.72c-1.35-1.43-2.63-2.86-3.9-4.06h-108v-2.86H295.93c-1.27-1.14-2.38-2.14-3.48-3.06H190.79v-2.85h17.33l81.61-.07-4.41-3.78-77.2.07H190.79V218h95.88c1.19-1.5,2.47-3,3.57-4.42H190.79v-2.85H292.7c.77-1.07,1.53-2.07,2.3-3.07H190.79v-2.85H297c1-1.49,2-3,3-4.49H190.79V128.09h0v.08h0v-3.29l17.33.08h0l97.24.28c-.77-1.14-1.53-2.21-2.3-3.28H190.79v-2.78h0l110.15-.07c-1.36-1.57-2.63-3.13-4-4.56H190.79V111.7H294.06c-1.36-1.35-2.72-2.57-4.16-3.78H190.79v-2.85h95.63c-1.7-1.21-3.23-2.35-4.76-3.42H190.79V98.87h86.37c-2.89-1.78-5.35-3.06-6.88-3.85h-83v.07h-175V105.5c18,1.5,26.67,9,26.67,22.23l-.09,181.54c0,18.67-25.82,21.45-25.82,22.52ZM124.55,180.19c10.11,1.07,19.11,7.34,25.22,14.61l-.33-39.05c-.34-43.41-58.35-41.84-59.79,0-.17,5.41.08,31.57.17,39.27A37.92,37.92,0,0,1,117,180.12a24.91,24.91,0,0,1,7.56.07Zm25.22,61.23a38.54,38.54,0,0,1-60-1.57c0,6.48,0,32.57-.08,37.27-.85,40.34,59.53,43.19,59.79,1.57ZM63.66,26.17A54.5,54.5,0,0,1,86.42,31H40.82a54.57,54.57,0,0,1,22.84-4.85Zm26.75,6.92a40.6,40.6,0,0,1,7.39,5.56H29.52a38.31,38.31,0,0,1,7.39-5.56Zm9.34,7.62a27.72,27.72,0,0,1,3.15,4.14H24.43a27.11,27.11,0,0,1,3.05-4.14Zm4.25,6.2a25.94,25.94,0,0,1,1.7,4.14H21.62a25.55,25.55,0,0,1,1.62-4.14Zm2.21,6.2a23,23,0,0,1,.51,4.85H20.52A23,23,0,0,1,21,53.11Zm.42,6.91a23.23,23.23,0,0,1-.93,4.85H21.62A18.59,18.59,0,0,1,20.69,60Zm-1.69,6.92a27.3,27.3,0,0,1-2,4.13H24.43a27.85,27.85,0,0,1-2.13-4.13Zm-3.49,6.2a33,33,0,0,1-5.18,5.49H31.05a30,30,0,0,1-5.18-5.49ZM93.64,80.7a40.62,40.62,0,0,1-7,4.06h-46a37.86,37.86,0,0,1-7-4.06ZM81.5,86.83a57.23,57.23,0,0,1-35.67,0Zm167,41.26h58.6c.59,1.14,1.18,2.28,1.78,3.42l-54.61-.5a14.93,14.93,0,0,0-5.77-2.84Zm8.92,5.85,52.73.42a33.66,33.66,0,0,1,1.53,4.14l-51-.36a47.33,47.33,0,0,0-3.22-4.2Zm4.92,7.19,50.28.15c.34,1.28.59,2.49.84,3.77H264c-.51-1.35-1.1-2.63-1.7-3.92Zm2.63,6.78h49c.16,1.42.33,2.92.5,4.49H266a33.88,33.88,0,0,0-1-4.49Zm1.36,7.27h48.24v3.42H266.46a23,23,0,0,0-.17-3.42Zm.09,6.27h48c-.17,1.35-.34,2.7-.51,4.13H266c.17-1.35.25-2.71.34-4.13Zm-.6,7h47.56c-.17,1-.42,2-.68,3.07H265.27c.17-1,.34-2.07.51-3.07Zm-1,5.92H311.9c-.43,1.42-.85,2.92-1.36,4.42H263.66c.42-1.43.76-2.93,1.1-4.42Zm-1.95,7.27h46.71c-.51,1.14-.94,2.28-1.44,3.42H261.54a21.35,21.35,0,0,0,1.27-3.42ZM260.26,188l46.54-.14c-.59,1.21-1.19,2.5-1.87,3.78l-46.88.14a33.88,33.88,0,0,0,2.21-3.78Zm-4.33,6.42h47.48c-.6,1.07-1.19,2.06-1.79,3.06H252.11c.85,0,3.31-2.49,3.82-3.06Zm-65,3.06h0Zm83.49,109.9h42.29c-.34,1.22-.77,2.36-1.19,3.57l-43,.35a31.89,31.89,0,0,0,1.87-3.92Zm1.95-6.91h42.54c-.33,1.35-.67,2.71-1.1,4.06l-42.46.07a35.08,35.08,0,0,0,1-4.13Zm1-6.27H320.3c-.17,1.14-.42,2.28-.67,3.42H276.91l.51-3.42Zm.42-6.27h43.23c-.09,1.14-.17,2.28-.34,3.42H277.67c.09-1.14.09-2.28.17-3.42Zm-.08-7.63h43.48c0,1.57.08,3.14,0,4.78h-43.4c0-1.57,0-3.14-.08-4.78Zm0-6.27h42.8c.17,1.14.34,2.28.42,3.42H277.84c0-1.14,0-2.28-.08-3.42Zm-1.36-7h42.72c.42,1.36.67,2.78,1,4.14h-42.8a33.15,33.15,0,0,0-.93-4.14Zm-1.95-6.2h42.63c.42,1.07.85,2.21,1.27,3.43h-42.8c-.17-.51-.34-.93-.51-1.36-.17-.71-.42-1.42-.59-2.07Zm-2.55-6.27h42.46c.59,1.14,1.1,2.28,1.61,3.42H273.43q-.76-1.81-1.53-3.42Zm38.3-7.27c.93,1.43,1.78,2.85,2.63,4.42H270.28a21.48,21.48,0,0,0-3.73-4.42H310.2Z"/><path class="cls-2" d="M438.89,189.5q-3.58,9.44-7.16,18.07Q420,229.25,405.91,244.31q-16,16.68-42.79,32.33l-15.65-19.48q65.41-31.52,77.85-103.81H355.39V129.46h71.44a20.71,20.71,0,0,0,.18-2.61V89.7h23v39.76h70.68v23.89h-68q2.07,12,3.77,16.87,15.27,51,73.51,92L510.7,278.65Q454.17,233.07,438.89,189.5Z"/><path class="cls-2" d="M606.65,116.61V138.9H543.88V116.61ZM567.06,277.85H545.39V204.16q0-7.23,6.78-7.23h47.12q7,0,7,7.23V256q5.65-22.89,6.22-58.63V121q.18-6.42,6-6.42h45.26V87.29l21.67-2.81q-.37,6.22-.37,12.85l12.81-12a105.25,105.25,0,0,1,15.84,19.08L701.45,114.6h14.14v23.09h-30q.75,29.92,3.58,53.61a2.27,2.27,0,0,1,.38-.8q4.33-16.26,5.09-44.18l20.73,2.42q-2.45,47.38-20,82.32c.5,2.81,1.13,5.63,1.89,8.44q1.5,6.62,2.64,6.62c.63-.13,1-.67,1.13-1.6q1.13-4,1.13-22.29l20.54,7q-3.19,41.76-11.68,46.18a18.31,18.31,0,0,1-9.24,2.61c-3-.14-5.72-1.88-8.1-5.22q-5.85-7.83-11.12-22.29a119.3,119.3,0,0,1-33,28.91l-15.27-17.06a114.08,114.08,0,0,0,40.9-37.55q-8.67-35.15-10.55-87.15H637c-1.88,0-2.83,1-2.83,3v10.85h23c4.78,0,7.16,1.2,7.16,3.61v68.27A20,20,0,0,1,660,236.08a2.61,2.61,0,0,0-1,1.21q-9.6,9.22-27.7,7.42a174.25,174.25,0,0,1-9.24,36L601,273.23a49.48,49.48,0,0,1,1.51-4.82,10.68,10.68,0,0,1-3.58.6H567.06ZM599.11,89.3v22.29H550.66V89.3Zm0,53.81V165.4H550.66V143.11Zm.75,26.51v22.29h-49.2V169.62Zm-29.22,49.59c-2.39,0-3.58,1.28-3.58,3.82v23.69h13.2q4.34-.19,4.33-4.62V223c-.12-2.54-1.38-3.82-3.77-3.82Zm63.52-47.79v33.14q0,9.84-.75,19.67l4.71-.2a11.51,11.51,0,0,0,4.53-4.82,14.6,14.6,0,0,0,1.5-6.62V174.24a2.49,2.49,0,0,0-2.82-2.82Zm51.08-69.07V114.6h10A109.47,109.47,0,0,0,685.24,102.35Z"/><path class="cls-2" d="M744.24,186.08l-13-21.48q24.87-30.93,36.19-75.5l21.86,8.43a334.7,334.7,0,0,1-13,37.35V274.64H753.85V174.24Q749,180.66,744.24,186.08ZM857,274.64H834.53v-48.2q-20.92,24.3-40.15,36.35l-16.21-18.68a186.68,186.68,0,0,0,49.57-44.17H784.39V176h50.14V164.2H796.27q-5.85-.21-5.85-6.43V98.34q0-6.23,5.85-6.23H895q6,0,6,6.23v59.43q-.18,6.43-6,6.43H857V176h51.27v23.9H864.12q20.53,26.31,52.78,47.39L898.8,264q-26-19.68-41.84-38.55ZM813,115.2c-.63.14-.94.47-.94,1V139.9c.12.8.44,1.2.94,1.2h65.22c.75,0,1.13-.4,1.13-1.2V116.21c0-.67-.38-1-1.13-1Z"/><path class="cls-2" d="M992.1,276.84l-18.85-12.65a135.1,135.1,0,0,0,29.6-51.4H992.29A2.63,2.63,0,0,1,990,212q0,16.06-7.92,23.89a21.25,21.25,0,0,1-13.57,6.43A38.68,38.68,0,0,1,952,240.1v34.54H931V95.32a3.72,3.72,0,0,1,.76-2.61,4.1,4.1,0,0,1,2.26-.6h39.2l14.71,9-2.83,15.66a152,152,0,0,0,49.76-27.91h16.4q30.72,21.28,58.62,27.91l-9.05,22.09a108.16,108.16,0,0,1-21.49-6.43v14.46h-69.55V133.27a126.83,126.83,0,0,1-21.11,7.43l-5.65-12.45-3.58,21.09q-2.84,16.47.56,21.28,7.53,16.27,9.42,30.32V154.16c0-2,.95-3,2.83-3h46q3,0,3,3v55.42q0,3.21-3,3.21h-26l12.07,4.22q-3,8.24-5.47,15.06,11.88,9.84,22.81,20.68L1027,270q-7.18-8.85-16.78-19.28Q997.2,271.41,992.1,276.84Zm-27-163.24h-11.5l-1.13.4a2,2,0,0,0-.57,1.4V216.2q5.47,4.43,10.18,4.42a7,7,0,0,0,4.34-1.41q8.65-8.22-8.86-51-1.7-4-.38-10.24Zm45.24,58.23c-.64.13-.88.47-.76,1V191.1a.94.94,0,0,0,.76,1h9.8c.62-.13.94-.47.94-1V172.83c-.13-.67-.44-1-.94-1Zm55-45.58a226.38,226.38,0,0,1-22.25-12.86,204.85,204.85,0,0,1-19.6,12.86ZM1109.15,261l-15.27,17.47q-9.6-11.85-22.8-25.7v.4q-7.55,15.66-15.65,25.5l-19.78-10.84A141.8,141.8,0,0,0,1062.22,212h-12.63q-2.82,0-2.82-3.22V154.16c0-2,.94-3,2.82-3h46.75q3,0,3,3v54.61q0,3.22-3,3.22h-27.71l15.08,4q-2.26,8.83-4.71,16.27Q1094.45,245.73,1109.15,261Zm-41.46-89.15c-.63.13-.88.47-.76,1V190.3a.93.93,0,0,0,.76,1h10.55c.63-.13,1-.46,1-1V172.83c-.13-.67-.45-1-1-1Z"/><path class="cls-2" d="M1122,198.73a121.86,121.86,0,0,0-4.52-21.88l15.64-2q6.23-8,13.2-18.47a140,140,0,0,0-27.9-19.88l9.24-20.08q1.5.2,6.78,4a357.31,357.31,0,0,0,13.95-35.14l18.85,9.64q-4.9,14.27-16.78,37.35,3,2.61,6.41,5.22a164.91,164.91,0,0,0,10.74-29.32l20.17,6q-3.95,18.08-17,38l12.06-3.82q10.19,29.52,13.76,46L1178,198.73a61.87,61.87,0,0,1-1.88-7l-7,1v81.93h-20.92V195.32Zm24.13,9.84q-.57,24.1-8.11,56.83l-19.41-3.62q7.53-34.53,8.1-55.82Zm20.17-48.79q-4,5.82-7.54,11.44l10.93-1.4Q1167.57,163.4,1166.27,159.78Zm30.91,85.14-19,4.21-7.73-39.55,18.66-6Zm36.56-30.52h-35.43V192.11h9.23q-8.67-20.09-16-30.52-6.21-8.84-3.39-11.85a113.08,113.08,0,0,0,16.59-34.94H1193V92.51h102V114.8h-13.19l15.83,9q-9.24,16.86-16.78,26.5-1.3.81,0,3.41,7.17,7.44,18.66,27.92l-15.08,10.44h9.81V214.4h-38.83v36.34h41.09V273H1193V250.74h40.71Zm11.31-22.29a209.23,209.23,0,0,0-18.84-30.52q-7.74-9.43-3.77-13.66,11.11-13.25,19-33.13h-33.36l17,8.23a160.89,160.89,0,0,1-15.26,28.31c-1.13.81-1.07,2.21.18,4.22q6,6.23,17.91,27.91l-12.82,8.64Zm35.06,0q-8.47-19.28-17.53-31.93-7.17-8.62-3.2-12.85a117.86,117.86,0,0,0,18.09-32.53h-31.85l15.83,9.24q-9.62,17.67-17.53,27.3c-.75.41-.75,1.28,0,2.62q8.86,8.83,20.17,26.9l-14.32,11.25Z"/><path class="cls-2" d="M1342.5,205q-.95,25.71-8.86,61.84l-21.86-2.41q8.48-38.34,9-61.24Zm-26.58-10.85a174,174,0,0,0-4-22.89l21.86-2q4.14-5.43,8.86-11.65a151.72,151.72,0,0,0-30-26.1L1324,111.79q1.7.4,7.54,5.22a328.68,328.68,0,0,0,13.76-32.33l19.22,10.64q-5.28,14.06-17.15,36,3.58,3.21,7.16,7A177.41,177.41,0,0,0,1371,98.13l20.92,6.43q-5.84,24.5-32.41,62.45l15.26-1.41q-2.82-9.63-3.58-12.65l20.92-5.22q7.73,26.31,10.56,44.58l-21.11,3.41c-.38-2.41-.82-4.88-1.32-7.43l-11.31,1.21v84.33h-22.43V191.5ZM1402.44,254l-22,4.42-9.05-53.61,20.92-6Zm60.13-133.33q0-3.41-3.39-3.41h-57.12V93.31h76.34q6.6,0,6.6,6.83v82.13h-22.43v-.4h-34.5c-.75,0-1.12.47-1.12,1.4V241.5c0,3.08.43,5.22,1.31,6.43a7,7,0,0,0,6,2.81h22.24a16.27,16.27,0,0,0,9.61-3.41,19.37,19.37,0,0,0,6.22-8.24q1.88-4.82.19-27.91l22.24,4.62q1.52,27.51-2.45,39.15a31.91,31.91,0,0,1-11.12,15.47q-5.48,4-17,4.22h-37.51q-11.7-.21-17.35-7a22.47,22.47,0,0,1-4.9-14.66V161.79c0-2.54,1.14-3.82,3.4-3.82h54.66Z"/><path class="cls-2" d="M1596.4,181.26a229.91,229.91,0,0,1-18.67,41q-20.36,31.53-56,55l-16.59-18.48a143.75,143.75,0,0,0,36.2-27.71q43.73-44.77,43.73-121.88V90.5h23.18v18.68c-.13,2.68-.25,5.49-.38,8.43a8.11,8.11,0,0,0,0,2.41q1.5,27.92,6.6,45,15.27,52.82,73.13,98.59l-19,15.26q-13.95-12-23.56-21.69Q1610.54,222.83,1596.4,181.26Z"/><path class="cls-2" d="M372.26,338.37V301.46h7.68v15.16h30.18V301.46h7.68v36.91h-7.68V321H379.94v17.4Z"/><path class="cls-2" d="M428.26,320.39A16.38,16.38,0,0,1,436,306q7.75-5.2,20-5.21a40.63,40.63,0,0,1,14.49,2.45,21.85,21.85,0,0,1,9.84,6.81,15.72,15.72,0,0,1,3.39,9.91,15.57,15.57,0,0,1-3.57,10,21.7,21.7,0,0,1-10.09,6.71A42.54,42.54,0,0,1,456,339a40,40,0,0,1-14.65-2.52,22,22,0,0,1-9.79-6.87A15,15,0,0,1,428.26,320.39Zm7.92.08A12.06,12.06,0,0,0,441.82,331q5.64,3.84,14.16,3.84t14.27-3.88a12.58,12.58,0,0,0,5.61-11,13.2,13.2,0,0,0-2.4-7.87,15.31,15.31,0,0,0-7-5.21A27.66,27.66,0,0,0,456.1,305a26.63,26.63,0,0,0-14,3.56Q436.18,312.14,436.18,320.47Z"/><path class="cls-2" d="M493.6,338.37V301.46h7.88l30.49,29v-29h7.37v36.91h-7.88l-30.49-29v29Z"/><path class="cls-2" d="M552.41,338.37V301.46h42v4.35H560.09v11.31h32.12v4.33H560.09V334h35.64v4.35Z"/><path class="cls-2" d="M603.73,326.51l7.25-.4a8.06,8.06,0,0,0,2.39,4.54,13.7,13.7,0,0,0,5.84,2.87,36.7,36.7,0,0,0,16.68.27,11.94,11.94,0,0,0,5-2.28,4.22,4.22,0,0,0,1.64-3.16,3.81,3.81,0,0,0-1.59-3,13.33,13.33,0,0,0-5.22-2.18q-2.34-.58-10.34-1.8A75.36,75.36,0,0,1,614.18,319,15.53,15.53,0,0,1,608,315.6a6.38,6.38,0,0,1-2-4.6,7.24,7.24,0,0,1,2.49-5.22,16.12,16.12,0,0,1,7.29-3.69,41.82,41.82,0,0,1,10.65-1.26,44.28,44.28,0,0,1,11.39,1.32,17.1,17.1,0,0,1,7.58,3.89,8.66,8.66,0,0,1,2.85,5.82l-7.36.35a7.15,7.15,0,0,0-4-5.29q-3.44-1.79-10.12-1.78c-4.65,0-8,.54-10.16,1.62s-3.19,2.39-3.19,3.92a3.78,3.78,0,0,0,2.26,3.27q2.22,1.29,11.58,2.63A109.6,109.6,0,0,1,640,318.94a18.32,18.32,0,0,1,7.49,3.76A7,7,0,0,1,650,328a7.75,7.75,0,0,1-2.66,5.55,17.72,17.72,0,0,1-7.62,4.05A39.83,39.83,0,0,1,628.48,339a50.54,50.54,0,0,1-13.21-1.46,19,19,0,0,1-8.35-4.39A9.62,9.62,0,0,1,603.73,326.51Z"/><path class="cls-2" d="M675.21,338.37V305.81H656.08v-4.35h46v4.35H682.89v32.56Z"/><path class="cls-2" d="M726.33,338.37V322.73L704,301.46h9.35l11.44,11.13q3.16,3.12,5.9,6.24,2.61-2.9,6.34-6.52l11.25-10.85h8.94L734,322.73v15.64Z"/><path class="cls-2" d="M787.91,338.37V301.46h7.69v36.91Z"/><path class="cls-2" d="M809.06,338.37V301.46h7.88l30.5,29v-29h7.36v36.91h-7.88l-30.49-29v29Z"/><path class="cls-2" d="M865.1,326.51l7.24-.4a8.13,8.13,0,0,0,2.4,4.54,13.64,13.64,0,0,0,5.84,2.87,36.66,36.66,0,0,0,16.67.27,11.82,11.82,0,0,0,5-2.28,4.2,4.2,0,0,0,1.65-3.16,3.81,3.81,0,0,0-1.59-3,13.39,13.39,0,0,0-5.23-2.18q-2.33-.58-10.33-1.8A75.36,75.36,0,0,1,875.55,319a15.58,15.58,0,0,1-6.2-3.43,6.42,6.42,0,0,1-2-4.6,7.25,7.25,0,0,1,2.5-5.22,16.12,16.12,0,0,1,7.29-3.69,41.82,41.82,0,0,1,10.65-1.26,44.28,44.28,0,0,1,11.39,1.32,17.1,17.1,0,0,1,7.58,3.89,8.66,8.66,0,0,1,2.85,5.82l-7.37.35a7.11,7.11,0,0,0-4-5.29q-3.42-1.79-10.12-1.78c-4.64,0-8,.54-10.15,1.62s-3.19,2.39-3.19,3.92A3.76,3.76,0,0,0,877,314q2.22,1.29,11.58,2.63a109.6,109.6,0,0,1,12.85,2.36,18.32,18.32,0,0,1,7.49,3.76,7,7,0,0,1,2.41,5.25,7.74,7.74,0,0,1-2.65,5.55,17.71,17.71,0,0,1-7.63,4.05A39.76,39.76,0,0,1,889.85,339a50.54,50.54,0,0,1-13.21-1.46,19,19,0,0,1-8.36-4.39A9.61,9.61,0,0,1,865.1,326.51Z"/><path class="cls-2" d="M959.9,301.46h7.69v21.33q0,5.56-2,8.83T958.46,337Q953.3,339,944.89,339a41.75,41.75,0,0,1-13.34-1.79q-5.19-1.79-7.41-5.17c-1.48-2.26-2.21-5.34-2.21-9.25V301.46h7.68v21.3q0,4.82,1.41,7.09a8.9,8.9,0,0,0,4.83,3.51,24.62,24.62,0,0,0,8.37,1.24q8.47,0,12.08-2.45t3.6-9.39Z"/><path class="cls-2" d="M980.5,338.37V301.46h25.74a52.94,52.94,0,0,1,11.8,1,13.06,13.06,0,0,1,6.45,3.52,7.86,7.86,0,0,1,2.42,5.56q0,3.93-4,6.62t-12.35,3.43a23.34,23.34,0,0,1,4.63,1.84,32.66,32.66,0,0,1,6.37,4.9l10.1,10.05H1022l-7.68-7.68c-2.25-2.21-4.09-3.91-5.55-5.08a16.08,16.08,0,0,0-3.9-2.47,15.38,15.38,0,0,0-3.5-1,35.39,35.39,0,0,0-4.28-.18h-8.91v16.39Zm7.68-20.62h16.52a38.26,38.26,0,0,0,8.23-.69,9.27,9.27,0,0,0,4.52-2.22,4.61,4.61,0,0,0,1.54-3.31c0-1.74-1-3.18-3-4.3s-5.14-1.69-9.44-1.69H988.18Z"/><path class="cls-2" d="M1032.57,338.37l22.3-36.91h8.28l23.76,36.91h-8.75l-6.78-11.18h-24.27l-6.38,11.18Zm16.76-15.16H1069L1063,313a80,80,0,0,1-4.12-7.65,34.9,34.9,0,0,1-3.13,7.05Z"/><path class="cls-2" d="M1093,338.37V301.46h7.88l30.49,29v-29h7.37v36.91h-7.88l-30.5-29v29Z"/><path class="cls-2" d="M1193,325.43l7.68,1.23a17.31,17.31,0,0,1-8.69,9.18q-6.27,3.17-15.35,3.16-9.37,0-15.26-2.43a19.23,19.23,0,0,1-9-7,17.48,17.48,0,0,1-3.07-9.89,15.54,15.54,0,0,1,3.46-10.06,21.33,21.33,0,0,1,9.87-6.52,42.37,42.37,0,0,1,14.07-2.23,34.07,34.07,0,0,1,14.66,2.82,16.27,16.27,0,0,1,8.27,7.93l-7.56,1.13a12.48,12.48,0,0,0-5.86-5.86,22.28,22.28,0,0,0-9.66-1.84,27,27,0,0,0-11.19,2,12.76,12.76,0,0,0-6.32,5.47,15.05,15.05,0,0,0-1.82,7.09,15.43,15.43,0,0,0,2.16,8.23,12.9,12.9,0,0,0,6.71,5.24,27.44,27.44,0,0,0,9.86,1.74,23.11,23.11,0,0,0,10.93-2.37A12.11,12.11,0,0,0,1193,325.43Z"/><path class="cls-2" d="M1210.35,338.37V301.46h42v4.35H1218v11.31h32.12v4.33H1218V334h35.64v4.35Z"/><path class="cls-2" d="M1286.5,338.37V301.46h21.78a40.89,40.89,0,0,1,10.67,1.12,13.84,13.84,0,0,1,6.3,3.45,7,7,0,0,1,2.28,4.87,6.38,6.38,0,0,1-2,4.46,14.33,14.33,0,0,1-6.1,3.37,17.65,17.65,0,0,1,8.1,3.35,7.12,7.12,0,0,1,2.83,5.59,7.75,7.75,0,0,1-1.72,4.82,11.67,11.67,0,0,1-4.26,3.44,24.16,24.16,0,0,1-6.36,1.83,60.3,60.3,0,0,1-9.36.61Zm7.68-21.4h12.56a43,43,0,0,0,7.32-.43,9.3,9.3,0,0,0,4.42-1.84,4.07,4.07,0,0,0,1.48-3.22,4.46,4.46,0,0,0-1.38-3.23,7.53,7.53,0,0,0-4-1.92,51.76,51.76,0,0,0-8.83-.52h-11.61Zm0,17h14.46a51.22,51.22,0,0,0,5.23-.18,17.6,17.6,0,0,0,4.43-1,7.23,7.23,0,0,0,2.93-2.05,4.63,4.63,0,0,0,1.15-3.11,4.76,4.76,0,0,0-1.66-3.59,9.65,9.65,0,0,0-4.62-2.14,44.33,44.33,0,0,0-8.49-.62h-13.43Z"/><path class="cls-2" d="M1341,338.37V301.46h25.74a52.88,52.88,0,0,1,11.8,1A13,13,0,0,1,1385,306a7.86,7.86,0,0,1,2.42,5.56c0,2.62-1.34,4.83-4,6.62s-6.79,2.94-12.36,3.43a23.09,23.09,0,0,1,4.63,1.84,32.71,32.71,0,0,1,6.38,4.9l10.1,10.05h-9.66l-7.69-7.68c-2.24-2.21-4.09-3.91-5.54-5.08a16.08,16.08,0,0,0-3.9-2.47,15.31,15.31,0,0,0-3.51-1,35.2,35.2,0,0,0-4.27-.18h-8.91v16.39Zm7.69-20.62h16.51a38.13,38.13,0,0,0,8.23-.69,9.27,9.27,0,0,0,4.52-2.22,4.59,4.59,0,0,0,1.55-3.31c0-1.74-1-3.18-3-4.3s-5.15-1.69-9.45-1.69h-18.37Z"/><path class="cls-2" d="M1397.15,320.39a16.38,16.38,0,0,1,7.76-14.38q7.77-5.2,20-5.21a40.63,40.63,0,0,1,14.49,2.45,21.8,21.8,0,0,1,9.84,6.81,15.72,15.72,0,0,1,3.39,9.91,15.57,15.57,0,0,1-3.57,10,21.7,21.7,0,0,1-10.09,6.71,42.54,42.54,0,0,1-14.1,2.28,40,40,0,0,1-14.65-2.52,21.92,21.92,0,0,1-9.78-6.87A14.94,14.94,0,0,1,1397.15,320.39Zm7.92.08a12.06,12.06,0,0,0,5.64,10.51q5.65,3.84,14.16,3.84,8.67,0,14.28-3.88a12.59,12.59,0,0,0,5.6-11,13.2,13.2,0,0,0-2.4-7.87,15.31,15.31,0,0,0-7-5.21A27.66,27.66,0,0,0,1425,305a26.63,26.63,0,0,0-14,3.56Q1405.07,312.14,1405.07,320.47Z"/><path class="cls-2" d="M1462.25,338.37V301.46h7.69v18.31l28.83-18.31h10.41l-24.35,15,25.42,21.95h-10.14l-20.67-18.68-9.5,5.89v12.79Z"/><path class="cls-2" d="M1516.83,338.37V301.46h42v4.35h-34.29v11.31h32.11v4.33h-32.11V334h35.64v4.35Z"/><path class="cls-2" d="M1570.88,338.37V301.46h25.74a53,53,0,0,1,11.81,1,13.06,13.06,0,0,1,6.45,3.52,7.86,7.86,0,0,1,2.42,5.56c0,2.62-1.34,4.83-4,6.62s-6.79,2.94-12.36,3.43a23.47,23.47,0,0,1,4.64,1.84,33,33,0,0,1,6.37,4.9l10.1,10.05h-9.66l-7.69-7.68c-2.24-2.21-4.09-3.91-5.54-5.08a16.08,16.08,0,0,0-3.9-2.47,15.31,15.31,0,0,0-3.51-1,35.2,35.2,0,0,0-4.27-.18h-8.92v16.39Zm7.68-20.62h16.52a38.3,38.3,0,0,0,8.24-.69,9.24,9.24,0,0,0,4.51-2.22,4.59,4.59,0,0,0,1.55-3.31c0-1.74-1-3.18-3-4.3s-5.15-1.69-9.45-1.69h-18.38Z"/><path class="cls-2" d="M1626.72,326.51l7.25-.4a8.06,8.06,0,0,0,2.39,4.54,13.75,13.75,0,0,0,5.85,2.87,36.66,36.66,0,0,0,16.67.27,11.94,11.94,0,0,0,5-2.28,4.22,4.22,0,0,0,1.64-3.16,3.81,3.81,0,0,0-1.59-3,13.33,13.33,0,0,0-5.22-2.18q-2.34-.58-10.34-1.8a74.86,74.86,0,0,1-11.2-2.31,15.58,15.58,0,0,1-6.2-3.43,6.38,6.38,0,0,1-2-4.6,7.24,7.24,0,0,1,2.49-5.22,16.22,16.22,0,0,1,7.29-3.69,41.93,41.93,0,0,1,10.65-1.26,44.23,44.23,0,0,1,11.39,1.32,17,17,0,0,1,7.58,3.89,8.66,8.66,0,0,1,2.85,5.82l-7.36.35a7.15,7.15,0,0,0-4-5.29q-3.43-1.79-10.12-1.78c-4.65,0-8,.54-10.16,1.62s-3.18,2.39-3.18,3.92a3.77,3.77,0,0,0,2.25,3.27q2.22,1.29,11.59,2.63a109.73,109.73,0,0,1,12.84,2.36,18.26,18.26,0,0,1,7.49,3.76,7,7,0,0,1,2.41,5.25,7.74,7.74,0,0,1-2.65,5.55,17.72,17.72,0,0,1-7.62,4.05,39.78,39.78,0,0,1-11.19,1.45,50.59,50.59,0,0,1-13.21-1.46,19,19,0,0,1-8.35-4.39A9.66,9.66,0,0,1,1626.72,326.51Z"/></svg>